<svg width="32" height="32" viewBox="0 0 32 32" fill="none" xmlns="http://www.w3.org/2000/svg">
<path d="M12.28 14.0533C12.5298 14.3017 12.8677 14.4411 13.22 14.4411C13.5722 14.4411 13.9102 14.3017 14.16 14.0533C14.4083 13.8035 14.5477 13.4656 14.5477 13.1133C14.5477 12.7611 14.4083 12.4231 14.16 12.1733C13.397 11.4493 12.3852 11.0457 11.3333 11.0457C10.2815 11.0457 9.2697 11.4493 8.50666 12.1733C8.36709 12.2929 8.25373 12.44 8.17369 12.6054C8.09366 12.7708 8.04869 12.951 8.0416 13.1346C8.0345 13.3182 8.06545 13.5013 8.13248 13.6724C8.19951 13.8435 8.30119 13.9989 8.43113 14.1289C8.56107 14.2588 8.71647 14.3605 8.88757 14.4275C9.05867 14.4945 9.24177 14.5255 9.4254 14.5184C9.60903 14.5113 9.7892 14.4663 9.95462 14.3863C10.12 14.3063 10.2671 14.1929 10.3867 14.0533C10.5106 13.9284 10.6581 13.8292 10.8206 13.7615C10.983 13.6938 11.1573 13.6589 11.3333 13.6589C11.5093 13.6589 11.6836 13.6938 11.8461 13.7615C12.0086 13.8292 12.156 13.9284 12.28 14.0533V14.0533ZM16 2.66666C13.3629 2.66666 10.785 3.44865 8.59239 4.91374C6.39974 6.37882 4.69077 8.4612 3.6816 10.8976C2.67243 13.3339 2.40839 16.0148 2.92286 18.6012C3.43733 21.1876 4.70721 23.5634 6.57191 25.4281C8.43661 27.2928 10.8124 28.5627 13.3988 29.0771C15.9852 29.5916 18.6661 29.3276 21.1024 28.3184C23.5388 27.3092 25.6212 25.6003 27.0863 23.4076C28.5513 21.2149 29.3333 18.6371 29.3333 16C29.3333 14.249 28.9885 12.5152 28.3184 10.8976C27.6483 9.27988 26.6662 7.81002 25.4281 6.57191C24.19 5.33379 22.7201 4.35167 21.1024 3.6816C19.4848 3.01154 17.751 2.66666 16 2.66666V2.66666ZM16 26.6667C13.8903 26.6667 11.828 26.0411 10.0739 24.869C8.31979 23.6969 6.95262 22.031 6.14528 20.082C5.33795 18.1329 5.12671 15.9882 5.53829 13.919C5.94986 11.8499 6.96576 9.94929 8.45752 8.45753C9.94928 6.96577 11.8499 5.94986 13.919 5.53829C15.9882 5.12671 18.1329 5.33795 20.082 6.14528C22.031 6.95262 23.6969 8.31979 24.869 10.0739C26.0411 11.828 26.6667 13.8903 26.6667 16C26.6667 18.829 25.5429 21.5421 23.5425 23.5425C21.5421 25.5429 18.829 26.6667 16 26.6667V26.6667ZM20 12C19.7363 12 19.4785 12.0782 19.2592 12.2247C19.04 12.3712 18.8691 12.5795 18.7682 12.8231C18.6672 13.0667 18.6408 13.3348 18.6923 13.5935C18.7437 13.8521 18.8707 14.0897 19.0572 14.2761C19.2437 14.4626 19.4812 14.5896 19.7399 14.641C19.9985 14.6925 20.2666 14.6661 20.5102 14.5652C20.7539 14.4643 20.9621 14.2934 21.1086 14.0741C21.2551 13.8548 21.3333 13.597 21.3333 13.3333C21.3333 12.9797 21.1929 12.6406 20.9428 12.3905C20.6928 12.1405 20.3536 12 20 12ZM20 17.3333H12C11.6464 17.3333 11.3072 17.4738 11.0572 17.7239C10.8071 17.9739 10.6667 18.313 10.6667 18.6667C10.6667 19.0203 10.8071 19.3594 11.0572 19.6095C11.3072 19.8595 11.6464 20 12 20C12 21.0609 12.4214 22.0783 13.1716 22.8284C13.9217 23.5786 14.9391 24 16 24C17.0609 24 18.0783 23.5786 18.8284 22.8284C19.5786 22.0783 20 21.0609 20 20C20.3536 20 20.6928 19.8595 20.9428 19.6095C21.1929 19.3594 21.3333 19.0203 21.3333 18.6667C21.3333 18.313 21.1929 17.9739 20.9428 17.7239C20.6928 17.4738 20.3536 17.3333 20 17.3333ZM16 21.3333C15.6464 21.3333 15.3072 21.1929 15.0572 20.9428C14.8071 20.6928 14.6667 20.3536 14.6667 20H17.3333C17.3333 20.3536 17.1929 20.6928 16.9428 20.9428C16.6928 21.1929 16.3536 21.3333 16 21.3333Z" fill="#F9A400"/>
</svg>
