<svg width="248" height="46" viewBox="0 0 248 46" fill="none" xmlns="http://www.w3.org/2000/svg">
<path d="M40.6374 5.91861L26.7458 45.0831H14.8067L0.915042 5.91861H11.0688L20.7762 35.4873L30.5395 5.91861H40.6374ZM49.4226 10.7165C47.7489 10.7165 46.3728 10.233 45.2942 9.266C44.2527 8.26179 43.732 7.03441 43.732 5.58387C43.732 4.09614 44.2527 2.86876 45.2942 1.90174C46.3728 0.897518 47.7489 0.395409 49.4226 0.395409C51.0591 0.395409 52.3981 0.897518 53.4395 1.90174C54.5181 2.86876 55.0574 4.09614 55.0574 5.58387C55.0574 7.03441 54.5181 8.26179 53.4395 9.266C52.3981 10.233 51.0591 10.7165 49.4226 10.7165ZM54.1648 13.9524V45.0831H44.6247V13.9524H54.1648ZM73.7426 45.5294C71.0275 45.5294 68.61 45.0645 66.49 44.1347C64.3699 43.2049 62.6962 41.9403 61.4689 40.341C60.2415 38.7045 59.5534 36.882 59.4046 34.8736H68.8331C68.9447 35.9522 69.4468 36.8262 70.3395 37.4957C71.2321 38.1652 72.3293 38.4999 73.6311 38.4999C74.8212 38.4999 75.7325 38.2767 76.3648 37.8304C77.0342 37.3469 77.369 36.7332 77.369 35.9894C77.369 35.0967 76.9041 34.4458 75.9742 34.0367C75.0444 33.5904 73.5381 33.1069 71.4553 32.5862C69.2237 32.0655 67.364 31.5262 65.8763 30.9683C64.3885 30.3732 63.1054 29.4619 62.0268 28.2346C60.9482 26.97 60.4089 25.2777 60.4089 23.1577C60.4089 21.3724 60.8924 19.7545 61.8594 18.304C62.8636 16.8162 64.3142 15.6446 66.211 14.7892C68.1451 13.9338 70.4324 13.506 73.0732 13.506C76.9785 13.506 80.0469 14.4731 82.2785 16.4071C84.5473 18.3412 85.8491 20.9075 86.1838 24.1061H77.369C77.2202 23.0275 76.7367 22.1721 75.9185 21.5398C75.1374 20.9075 74.096 20.5914 72.7942 20.5914C71.6784 20.5914 70.823 20.8145 70.2279 21.2608C69.6328 21.67 69.3352 22.2465 69.3352 22.9903C69.3352 23.883 69.8002 24.5524 70.73 24.9988C71.697 25.4451 73.1847 25.8914 75.1932 26.3377C77.4992 26.9328 79.3774 27.5279 80.828 28.123C82.2785 28.6809 83.5431 29.6107 84.6217 30.9125C85.7375 32.1771 86.314 33.8879 86.3512 36.0452C86.3512 37.8676 85.8305 39.5041 84.789 40.9547C83.7848 42.368 82.3157 43.4838 80.3816 44.3021C78.4848 45.1203 76.2718 45.5294 73.7426 45.5294ZM122.928 13.9524V45.0831H113.388V40.8431C112.421 42.2192 111.101 43.335 109.427 44.1905C107.79 45.0087 105.968 45.4179 103.959 45.4179C101.579 45.4179 99.4776 44.8971 97.6552 43.8557C95.8327 42.7771 94.4193 41.2336 93.4151 39.2252C92.4109 37.2167 91.9088 34.855 91.9088 32.1399V13.9524H101.393V30.8567C101.393 32.9395 101.932 34.5574 103.011 35.7104C104.09 36.8634 105.54 37.4399 107.363 37.4399C109.222 37.4399 110.691 36.8634 111.77 35.7104C112.849 34.5574 113.388 32.9395 113.388 30.8567V13.9524H122.928ZM127.884 29.4619C127.884 26.2633 128.479 23.4552 129.669 21.0377C130.896 18.6201 132.551 16.7604 134.634 15.4587C136.717 14.1569 139.042 13.506 141.608 13.506C143.802 13.506 145.718 13.9524 147.354 14.845C149.028 15.7376 150.311 16.9092 151.204 18.3598V13.9524H160.744V45.0831H151.204V40.6757C150.274 42.1263 148.972 43.2978 147.299 44.1905C145.662 45.0831 143.747 45.5294 141.552 45.5294C139.023 45.5294 136.717 44.8786 134.634 43.5768C132.551 42.2378 130.896 40.3596 129.669 37.942C128.479 35.4873 127.884 32.6606 127.884 29.4619ZM151.204 29.5177C151.204 27.1374 150.534 25.2591 149.195 23.883C147.894 22.5068 146.294 21.8187 144.397 21.8187C142.501 21.8187 140.883 22.5068 139.544 23.883C138.242 25.2219 137.591 27.0816 137.591 29.4619C137.591 31.8423 138.242 33.7392 139.544 35.1525C140.883 36.5287 142.501 37.2167 144.397 37.2167C146.294 37.2167 147.894 36.5287 149.195 35.1525C150.534 33.7764 151.204 31.8981 151.204 29.5177ZM177.186 3.7986V45.0831H167.646V3.7986H177.186ZM205.462 5.91861V45.0831H195.922V5.91861H205.462ZM227.048 5.91861C231.177 5.91861 234.785 6.73686 237.872 8.37336C240.959 10.0099 243.339 12.3159 245.013 15.2913C246.724 18.2296 247.579 21.6328 247.579 25.5009C247.579 29.3318 246.724 32.735 245.013 35.7104C243.339 38.6859 240.94 40.9919 237.816 42.6284C234.729 44.2649 231.14 45.0831 227.048 45.0831H212.376V5.91861H227.048ZM226.435 36.8262C230.043 36.8262 232.851 35.8406 234.859 33.8693C236.867 31.8981 237.872 29.1086 237.872 25.5009C237.872 21.8931 236.867 19.085 234.859 17.0766C232.851 15.0682 230.043 14.0639 226.435 14.0639H221.916V36.8262H226.435Z" fill="black"/>
</svg>
