<svg width="256" height="256" viewBox="0 0 256 256" fill="none" xmlns="http://www.w3.org/2000/svg">
<path d="M98.24 112.427C100.239 114.413 102.942 115.528 105.76 115.528C108.578 115.528 111.281 114.413 113.28 112.427C115.267 110.428 116.382 107.725 116.382 104.907C116.382 102.089 115.267 99.3852 113.28 97.3867C107.176 91.5946 99.0816 88.3656 90.6667 88.3656C82.2518 88.3656 74.1577 91.5946 68.0534 97.3867C66.9368 98.3429 66.0299 99.5196 65.3896 100.843C64.7494 102.166 64.3896 103.608 64.3328 105.077C64.2761 106.546 64.5236 108.011 65.0599 109.379C65.5962 110.748 66.4096 111.991 67.4491 113.031C68.4886 114.07 69.7318 114.884 71.1006 115.42C72.4694 115.956 73.9343 116.204 75.4033 116.147C76.8723 116.09 78.3137 115.731 79.637 115.09C80.9604 114.45 82.1371 113.543 83.0934 112.427C84.085 111.427 85.2647 110.633 86.5645 110.092C87.8644 109.55 89.2586 109.271 90.6667 109.271C92.0748 109.271 93.469 109.55 94.7688 110.092C96.0687 110.633 97.2484 111.427 98.24 112.427V112.427ZM128 21.3333C106.903 21.3333 86.2804 27.5892 68.7392 39.3099C51.198 51.0306 37.5262 67.6896 29.4529 87.1804C21.3795 106.671 19.2672 128.118 23.3829 148.81C27.4987 169.501 37.6577 188.507 52.5753 203.425C67.4929 218.342 86.4991 228.501 107.19 232.617C127.882 236.733 149.329 234.621 168.82 226.547C188.31 218.474 204.969 204.802 216.69 187.261C228.411 169.72 234.667 149.097 234.667 128C234.667 113.992 231.908 100.122 226.547 87.1804C221.187 74.239 213.33 62.4802 203.425 52.5753C193.52 42.6704 181.761 34.8134 168.82 29.4529C155.878 24.0924 142.008 21.3333 128 21.3333V21.3333ZM128 213.333C111.123 213.333 94.6244 208.329 80.5914 198.952C66.5584 189.576 55.621 176.248 49.1623 160.656C42.7036 145.063 41.0137 127.905 44.3064 111.352C47.599 94.7993 55.7262 79.5943 67.6602 67.6602C79.5943 55.7261 94.7993 47.5989 111.352 44.3063C127.905 41.0137 145.063 42.7036 160.656 49.1623C176.248 55.621 189.576 66.5583 198.952 80.5913C208.329 94.6243 213.333 111.123 213.333 128C213.333 150.632 204.343 172.337 188.34 188.34C172.337 204.343 150.632 213.333 128 213.333V213.333ZM160 96C157.89 96 155.828 96.6256 154.074 97.7977C152.32 98.9697 150.953 100.636 150.145 102.585C149.338 104.534 149.127 106.679 149.538 108.748C149.95 110.817 150.966 112.717 152.458 114.209C153.949 115.701 155.85 116.717 157.919 117.128C159.988 117.54 162.133 117.329 164.082 116.521C166.031 115.714 167.697 114.347 168.869 112.593C170.041 110.839 170.667 108.776 170.667 106.667C170.667 103.838 169.543 101.125 167.543 99.1242C165.542 97.1238 162.829 96 160 96ZM160 138.667H96C93.1711 138.667 90.4579 139.79 88.4576 141.791C86.4572 143.791 85.3334 146.504 85.3334 149.333C85.3334 152.162 86.4572 154.875 88.4576 156.876C90.4579 158.876 93.1711 160 96 160C96 168.487 99.3714 176.626 105.373 182.627C111.374 188.629 119.513 192 128 192C136.487 192 144.626 188.629 150.627 182.627C156.629 176.626 160 168.487 160 160C162.829 160 165.542 158.876 167.543 156.876C169.543 154.875 170.667 152.162 170.667 149.333C170.667 146.504 169.543 143.791 167.543 141.791C165.542 139.79 162.829 138.667 160 138.667ZM128 170.667C125.171 170.667 122.458 169.543 120.458 167.542C118.457 165.542 117.333 162.829 117.333 160H138.667C138.667 162.829 137.543 165.542 135.543 167.542C133.542 169.543 130.829 170.667 128 170.667Z" fill="#F9A400"/>
</svg>
